# File created by Blade
# Date/Time:  Fri Jan 16 14:33:41 2015
# Frame Rate: 120.000 fps
#------------------------------------------------------
:FULLY-SPECIFIED
:DEGREES
2506
root 19.657422 35.688358 -23.687842 -175.825782 -0.696318 -178.999805
Spine -10.527526 10.621045 0.906223
Head 5.298081 -15.337175 -3.014001
LeftShoulder 0.595273 -14.895111 -14.239857
LeftArm -9.222420 31.618580 -73.915571
LeftForeArm 1.441377 0.000000 5.795761
LeftHand -1.049566 -0.000000 -2.661916
LeftHandThumb1 -26.253704 0.000000 33.147579
RightShoulder 16.950357 -0.877623 -7.930749
RightArm 94.586243 -28.722007 38.219589
RightForeArm -3.716620 -0.000000 118.893492
RightHand -11.704591 -0.000000 -8.684226
RightHandThumb1 -24.326973 -0.000000 -32.862282
LeftUpLeg 2.719088 11.412458 1.752029
LeftLeg -4.523838 -0.000000 0.000000
LeftFoot -19.956699 26.061144 -14.622084
LeftToeBase 25.048250 -0.000000 -0.000000
RightUpLeg 2.091308 -12.402342 3.135717
RightLeg -3.568709 -0.000000 0.000000
RightFoot -19.701698 -22.648509 14.440281
RightToeBase 23.505954 -0.000000 -0.000000
2507
root 19.657598 35.687579 -23.690379 -175.810680 -0.677595 -178.998078
Spine -10.553200 10.658742 0.923178
Head 5.154014 -15.341472 -2.988000
LeftShoulder 0.552395 -14.917501 -14.231455
LeftArm -9.235700 31.635985 -73.909014
LeftForeArm 1.468904 -0.000000 5.793355
LeftHand -1.077147 -0.000000 -2.588023
LeftHandThumb1 -26.253704 0.000000 33.147579
RightShoulder 16.934623 -0.869430 -7.918823
RightArm 94.488945 -28.790328 38.227898
RightForeArm -3.571627 -0.000000 119.031962
RightHand -11.626975 -0.000000 -8.500480
RightHandThumb1 -24.326973 -0.000000 -32.862282
LeftUpLeg 2.720141 11.423598 1.751054
LeftLeg -4.541933 -0.000000 0.000000
LeftFoot -19.954215 26.066366 -14.620704
LeftToeBase 25.015283 -0.000000 -0.000000
RightUpLeg 2.085100 -12.402731 3.140310
RightLeg -3.585715 -0.000000 0.000000
RightFoot -19.678070 -22.601767 14.412816
RightToeBase 23.465034 -0.000000 -0.000000
2508
root 19.658268 35.686781 -23.691190 -175.796839 -0.661843 -178.997151
Spine -10.579955 10.654691 0.943772
Head 5.024189 -15.325177 -2.970549
LeftShoulder 0.499863 -14.934857 -14.218154
LeftArm -9.252103 31.660086 -73.901077
LeftForeArm 1.514861 -0.000000 5.788134
LeftHand -1.014011 -0.000000 -2.680536
LeftHandThumb1 -26.253704 0.000000 33.147579
RightShoulder 16.970493 -0.904970 -7.899716
RightArm 94.372975 -28.814376 38.254835
RightForeArm -3.466309 0.000000 119.216664
RightHand -11.492691 0.000000 -8.256233
RightHandThumb1 -24.326973 -0.000000 -32.862282
LeftUpLeg 2.717010 11.441818 1.751128
LeftLeg -4.553758 -0.000000 0.000000
LeftFoot -19.958119 26.061416 -14.614959
LeftToeBase 25.051617 -0.000000 -0.000000
RightUpLeg 2.077705 -12.381210 3.144785
RightLeg -3.596577 -0.000000 0.000000
RightFoot -19.685820 -22.650621 14.394886
RightToeBase 23.558082 -0.000000 -0.000000
2509
root 19.659249 35.686315 -23.693655 -175.790429 -0.646592 -178.993413
Spine -10.605434 10.661262 0.963157
Head 4.927062 -15.343116 -2.961211
LeftShoulder 0.464669 -14.946766 -14.217205
LeftArm -9.274245 31.651063 -73.878610
LeftForeArm 1.476442 0.000000 5.792532
LeftHand -1.108799 -0.000000 -2.527881
LeftHandThumb1 -26.253704 0.000000 33.147579
RightShoulder 16.978979 -0.959878 -7.863504
RightArm 94.279089 -28.827396 38.216983
RightForeArm -3.549769 -0.000000 119.461215
RightHand -11.582696 -0.000000 -8.344315
RightHandThumb1 -24.326973 -0.000000 -32.862282
LeftUpLeg 2.728473 11.441335 1.754453
LeftLeg -4.578123 -0.000000 0.000000
LeftFoot -19.955877 26.087831 -14.619221
LeftToeBase 25.065039 -0.000000 -0.000000
RightUpLeg 2.085836 -12.354532 3.146026
RightLeg -3.613219 -0.000000 0.000000
RightFoot -19.675779 -22.653897 14.382739
RightToeBase 23.558784 -0.000000 -0.000000
2510
root 19.659975 35.685446 -23.695056 -175.771827 -0.631946 -178.998642
Spine -10.642916 10.651368 0.975948
Head 4.830670 -15.332138 -2.962228
LeftShoulder 0.395821 -14.969174 -14.200484
LeftArm -9.290224 31.679562 -73.860826
LeftForeArm 1.458188 -0.000000 5.796573
LeftHand -1.144409 -0.000000 -2.538032
LeftHandThumb1 -26.253704 0.000000 33.147579
RightShoulder 16.999396 -1.018604 -7.868508
RightArm 94.128815 -28.874143 38.269702
RightForeArm -3.616826 0.000000 119.681005
RightHand -11.491139 -0.000000 -8.090729
RightHandThumb1 -24.326973 -0.000000 -32.862282
LeftUpLeg 2.719687 11.457281 1.746945
LeftLeg -4.587500 -0.000000 0.000000
LeftFoot -19.949469 26.084404 -14.602815
LeftToeBase 25.057017 -0.000000 -0.000000
RightUpLeg 2.074797 -12.344459 3.147169
RightLeg -3.628299 -0.000000 0.000000
RightFoot -19.678431 -22.653099 14.386747
RightToeBase 23.511893 -0.000000 -0.000000
2511
root 19.660983 35.684722 -23.696734 -175.754464 -0.620964 -178.991256
Spine -10.681142 10.646273 0.997747
Head 4.736803 -15.307519 -2.952241
LeftShoulder 0.322272 -14.999750 -14.179014
LeftArm -9.311521 31.729706 -73.855199
LeftForeArm 1.357763 -0.000000 5.796959
LeftHand -1.124974 -0.000000 -2.529387
LeftHandThumb1 -26.253704 0.000000 33.147579
RightShoulder 17.002740 -1.101492 -7.834939
RightArm 94.035831 -28.866426 38.209972
RightForeArm -3.733916 -0.000000 119.905727
RightHand -11.446735 0.000000 -8.154144
RightHandThumb1 -24.326973 -0.000000 -32.862282
LeftUpLeg 2.709441 11.465893 1.753639
LeftLeg -4.593005 -0.000000 0.000000
LeftFoot -19.960521 26.073925 -14.607578
LeftToeBase 25.046123 -0.000000 -0.000000
RightUpLeg 2.062528 -12.324839 3.157296
RightLeg -3.637392 -0.000000 0.000000
RightFoot -19.669175 -22.614122 14.401516
RightToeBase 23.488727 -0.000000 -0.000000
2512
root 19.661241 35.684050 -23.698507 -175.740758 -0.622629 -178.993765
Spine -10.709982 10.610184 1.027451
Head 4.624141 -15.252314 -2.970581
LeftShoulder 0.216623 -15.021039 -14.164519
LeftArm -9.303944 31.804139 -73.829287
LeftForeArm 1.270201 -0.000000 5.788698
LeftHand -1.062733 0.000000 -2.547935
LeftHandThumb1 -26.253704 0.000000 33.147579
RightShoulder 17.011384 -1.196422 -7.849586
RightArm 93.974984 -28.863709 38.174559
RightForeArm -3.896746 0.000000 120.105392
RightHand -11.506565 0.000000 -7.534988
RightHandThumb1 -24.326973 -0.000000 -32.862282
LeftUpLeg 2.700361 11.459102 1.750290
LeftLeg -4.595400 -0.000000 0.000000
LeftFoot -19.967636 26.081201 -14.609270
LeftToeBase 25.066234 -0.000000 -0.000000
RightUpLeg 2.054692 -12.324315 3.156151
RightLeg -3.636836 -0.000000 0.000000
RightFoot -19.689638 -22.644260 14.403971
RightToeBase 23.544268 -0.000000 -0.000000
2513
root 19.661980 35.683402 -23.701204 -175.733239 -0.630252 -178.993415
Spine -10.734200 10.549454 1.051293
Head 4.531623 -15.174766 -2.965331
LeftShoulder 0.088099 -15.019158 -14.129148
LeftArm -9.257618 31.857673 -73.791748
LeftForeArm 1.177390 -0.000000 5.784080
LeftHand -1.060843 -0.000000 -2.604475
LeftHandThumb1 -26.253704 0.000000 33.147579
RightShoulder 17.022156 -1.266415 -7.834211
RightArm 93.872240 -28.861702 38.093873
RightForeArm -3.681173 -0.000000 120.286102
RightHand -11.457615 0.000000 -8.266837
RightHandThumb1 -24.326973 -0.000000 -32.862282
LeftUpLeg 2.696676 11.451251 1.751851
LeftLeg -4.589632 -0.000000 0.000000
LeftFoot -19.991757 26.067947 -14.612134
LeftToeBase 25.111526 -0.000000 -0.000000
RightUpLeg 2.056396 -12.327856 3.158611
RightLeg -3.644479 -0.000000 0.000000
RightFoot -19.683084 -22.657087 14.349371
RightToeBase 23.587407 -0.000000 -0.000000
2514
root 19.663015 35.682730 -23.704314 -175.730072 -0.638038 -178.992462
Spine -10.761665 10.529301 1.076504
Head 4.460210 -15.100869 -2.984526
LeftShoulder 0.035537 -15.045403 -14.121342
LeftArm -9.295100 31.832527 -73.770025
LeftForeArm 1.196830 -0.000000 5.823637
LeftHand -1.086553 -0.000000 -2.620466
LeftHandThumb1 -26.253704 0.000000 33.147579
RightShoulder 16.995259 -1.330115 -7.812636
RightArm 93.752332 -28.874603 38.025853
RightForeArm -3.498763 -0.000000 120.431667
RightHand -12.194934 0.000000 -9.349371
RightHandThumb1 -24.326973 -0.000000 -32.862282
LeftUpLeg 2.698938 11.455351 1.755675
LeftLeg -4.600689 -0.000000 0.000000
LeftFoot -19.975408 26.071800 -14.607590
LeftToeBase 25.078022 -0.000000 -0.000000
RightUpLeg 2.064240 -12.323459 3.161480
RightLeg -3.653627 -0.000000 0.000000
RightFoot -19.695087 -22.666059 14.374462
RightToeBase 23.532296 -0.000000 -0.000000
2515
root 19.663112 35.682063 -23.707238 -175.726583 -0.651178 -178.998511
Spine -10.786161 10.486844 1.083386
Head 4.390575 -14.983864 -2.963646
LeftShoulder -0.038914 -15.054302 -14.075869
LeftArm -9.299540 31.820431 -73.770713
LeftForeArm 1.210826 0.000000 5.838551
LeftHand -1.000987 -0.000000 -2.672812
LeftHandThumb1 -26.253704 0.000000 33.147579
RightShoulder 16.995286 -1.426625 -7.765446
RightArm 93.621178 -28.820743 37.976958
RightForeArm -3.275941 -0.000000 120.550644
RightHand -12.747748 -0.000000 -9.054300
RightHandThumb1 -24.326973 -0.000000 -32.862282
LeftUpLeg 2.702435 11.430701 1.750326
LeftLeg -4.603745 -0.000000 0.000000
LeftFoot -19.987837 26.076212 -14.615021
LeftToeBase 25.126284 -0.000000 -0.000000
RightUpLeg 2.067216 -12.343084 3.157901
RightLeg -3.655687 -0.000000 0.000000
RightFoot -19.690674 -22.664428 14.352132
RightToeBase 23.539889 -0.000000 -0.000000
2516
root 19.663373 35.681584 -23.709953 -175.724099 -0.678891 -178.995270
Spine -10.810312 10.416033 1.121878
Head 4.311270 -14.923646 -2.984312
LeftShoulder -0.116960 -15.065800 -14.056205
LeftArm -9.291730 31.743271 -73.719199
LeftForeArm 1.077282 0.000000 5.862433
LeftHand -1.025344 -0.000000 -2.848043
LeftHandThumb1 -26.253704 0.000000 33.147579
RightShoulder 16.977403 -1.515499 -7.767550
RightArm 93.526352 -28.814252 37.932479
RightForeArm -3.116168 -0.000000 120.676889
RightHand -12.490230 -0.000000 -9.083574
RightHandThumb1 -24.326973 -0.000000 -32.862282
LeftUpLeg 2.698100 11.417125 1.754180
LeftLeg -4.601781 -0.000000 0.000000
LeftFoot -19.969621 26.081546 -14.576104
LeftToeBase 25.090807 -0.000000 -0.000000
RightUpLeg 2.076088 -12.359876 3.162611
RightLeg -3.667457 -0.000000 0.000000
RightFoot -19.691016 -22.663056 14.365298
RightToeBase 23.448791 -0.000000 -0.000000
2517
root 19.663793 35.681954 -23.712872 -175.714231 -0.705949 -178.994927
Spine -10.835384 10.355154 1.143679
Head 4.222144 -14.903448 -2.991410
LeftShoulder -0.195238 -15.099601 -14.035464
LeftArm -9.323846 31.776521 -73.719653
LeftForeArm 1.043135 0.000000 5.871349
LeftHand -1.050159 -0.000000 -2.643346
LeftHandThumb1 -26.253704 0.000000 33.147579
RightShoulder 16.908438 -1.601222 -7.729151
RightArm 93.464665 -28.792916 37.834287
RightForeArm -2.999206 0.000000 120.699572
RightHand -12.525664 -0.000000 -8.420835
RightHandThumb1 -24.326973 -0.000000 -32.862282
LeftUpLeg 2.686119 11.389482 1.755178
LeftLeg -4.594118 -0.000000 0.000000
LeftFoot -20.006112 26.059343 -14.614117
LeftToeBase 25.126167 -0.000000 -0.000000
RightUpLeg 2.071240 -12.366820 3.165690
RightLeg -3.664241 -0.000000 0.000000
RightFoot -19.707097 -22.677162 14.386666
RightToeBase 23.510633 -0.000000 -0.000000
2518
root 19.663730 35.681865 -23.715890 -175.714629 -0.733435 -178.991956
Spine -10.859162 10.272740 1.181064
Head 4.168548 -14.830199 -3.015403
LeftShoulder -0.261876 -15.099421 -14.019887
LeftArm -9.342569 31.784990 -73.709346
LeftForeArm 1.089138 -0.000000 5.905509
LeftHand -1.103275 0.000000 -2.598990
LeftHandThumb1 -26.253704 0.000000 33.147579
RightShoulder 16.878598 -1.648889 -7.684689
RightArm 93.355654 -28.786609 37.741668
RightForeArm -2.976135 -0.000000 120.737847
RightHand -12.571208 0.000000 -8.574883
RightHandThumb1 -24.326973 -0.000000 -32.862282
LeftUpLeg 2.685605 11.377570 1.760538
LeftLeg -4.596752 -0.000000 0.000000
LeftFoot -19.982844 26.070253 -14.584112
LeftToeBase 25.112126 -0.000000 -0.000000
RightUpLeg 2.078374 -12.383422 3.168790
RightLeg -3.664221 -0.000000 0.000000
RightFoot -19.708561 -22.670472 14.412225
RightToeBase 23.485125 -0.000000 -0.000000
